# xmcd
#
# Track frame offsets:
# 150
# 15198
# 30977
# 45108
# 60972
# 77424
# 95303
# 115036
# 130925
# 149227
# 164363
# 182843
#
# Disc length: 2631 seconds
#
#
# Revision: 1
# Processed by: cddbd v1.4PL0 Copyright (c) Steve Scherf et al.
# Submitted via: FreeRIP 2.40 
#
DISCID=850a450c
DTITLE=Westlife - Turn Around
DYEAR=2003
DGENRE=Pop
TTITLE0=Mandy
TTITLE1=Hey Whatever
TTITLE2=Heal
TTITLE3=Obvious
TTITLE4=When A Woman Loves A Man
TTITLE5=On My Shoulder
TTITLE6=Turn Around
TTITLE7=I Dit It For You
TTITLE8=Thank You
TTITLE9=To Be With You
TTITLE10=Home
TTITLE11=What Do They Know?
EXTD=Turn Around - Nam-gi Song
EXTT0=
EXTT1=
EXTT2=
EXTT3=
EXTT4=
EXTT5=
EXTT6=
EXTT7=
EXTT8=
EXTT9=
EXTT10=
EXTT11=
PLAYORDER=
